<?xml version="1.0" standalone="no"?>
<!DOCTYPE svg PUBLIC "-//W3C//DTD SVG 20010904//EN"
 "http://www.w3.org/TR/2001/REC-SVG-20010904/DTD/svg10.dtd">
<svg version="1.0" xmlns="http://www.w3.org/2000/svg"
 width="700.000000pt" height="700.000000pt" viewBox="0 0 700.000000 700.000000"
 preserveAspectRatio="xMidYMid meet">
<metadata>
Created by potrace 1.11, written by Peter Selinger 2001-2013
</metadata>
<g transform="translate(0.000000,700.000000) scale(0.100000,-0.100000)"
fill="#000000" stroke="none">
<path d="M1224 6984 c-49 -18 -114 -77 -140 -130 -18 -38 -19 -74 -20 -1131
-1 -786 2 -1093 10 -1094 6 -1 1103 -2 2437 -3 l2426 -1 -1 1095 -1 1095 -30
54 c-22 39 -45 64 -85 90 l-55 36 -2250 2 c-1944 1 -2256 0 -2291 -13z m4213
-1109 l0 -625 -1936 2 -1936 3 -1 623 -1 622 1937 0 1937 0 0 -625z"/>
<path d="M1063 2350 l0 -2151 23 -47 c29 -62 60 -95 114 -124 l45 -23 2255 0
c2165 0 2256 1 2292 18 49 25 100 76 124 123 19 38 19 91 20 2197 l1 2157
-2437 0 -2437 0 0 -2150z m1097 1753 c75 -34 129 -97 145 -171 4 -18 7 -78 7
-134 -1 -90 -4 -106 -29 -157 -31 -62 -91 -114 -151 -131 -48 -13 -466 -13
-514 0 -60 17 -120 69 -151 131 -26 52 -28 66 -28 165 0 124 0 125 26 179 21
44 46 72 88 99 55 37 103 43 336 41 205 -1 230 -3 271 -22z m1109 8 c28 -8 60
-29 92 -61 63 -63 77 -111 75 -255 -3 -121 -17 -164 -75 -222 -65 -65 -80 -68
-361 -68 -250 0 -256 1 -300 24 -54 29 -83 58 -112 114 -17 35 -22 62 -24 156
-2 121 7 167 46 222 32 44 84 80 137 93 64 16 462 14 522 -3z m1134 -4 c76
-33 129 -91 148 -162 13 -45 15 -189 5 -250 -10 -54 -65 -128 -123 -162 l-48
-28 -237 -3 c-149 -2 -251 1 -277 8 -63 17 -122 67 -154 132 -26 52 -29 65
-28 165 1 69 7 125 17 155 26 79 104 145 184 155 19 3 36 6 37 7 2 2 101 2
220 1 179 -1 225 -4 256 -18z m1128 1 c53 -23 107 -75 132 -127 18 -38 22 -65
23 -163 1 -104 -2 -124 -22 -167 -12 -27 -39 -65 -59 -84 -62 -59 -107 -67
-360 -67 -142 0 -234 4 -256 12 -58 19 -115 67 -145 121 -24 44 -28 64 -31
154 -2 58 1 123 8 146 23 89 93 161 176 182 72 18 488 13 534 -7z m-3404 -991
c73 -18 144 -86 169 -160 11 -34 16 -82 15 -155 0 -95 -3 -112 -28 -161 -32
-64 -92 -115 -154 -131 -26 -7 -128 -10 -277 -8 l-237 3 -47 28 c-99 58 -129
123 -130 283 0 90 3 118 20 155 37 82 101 133 185 148 47 8 450 6 484 -2z
m1138 -5 c53 -15 106 -61 141 -119 27 -46 28 -53 28 -178 0 -113 -2 -135 -21
-170 -29 -55 -64 -90 -115 -117 -41 -22 -52 -23 -298 -23 -248 0 -256 1 -299
23 -52 28 -86 63 -114 117 -26 50 -33 232 -12 302 24 80 96 150 174 170 48 12
469 8 516 -5z m1146 -9 c77 -34 130 -98 145 -174 3 -19 6 -79 5 -134 0 -87 -4
-106 -28 -155 -32 -63 -92 -114 -155 -131 -26 -7 -126 -9 -277 -7 -235 3 -236
3 -281 30 -100 59 -133 126 -132 272 1 56 4 115 8 131 17 82 103 167 183 181
20 3 40 7 45 8 6 1 107 2 225 1 194 -1 221 -3 262 -22z m1089 13 c89 -27 152
-88 175 -171 19 -66 14 -246 -8 -296 -21 -48 -86 -109 -139 -130 -37 -15 -78
-18 -278 -18 -231 -1 -236 0 -289 24 -62 29 -92 58 -123 118 -28 55 -35 225
-13 304 25 84 88 146 173 167 52 14 460 15 502 2z m-3340 -1013 c71 -32 123
-89 140 -153 6 -21 10 -86 11 -145 0 -98 -2 -112 -28 -164 -31 -62 -91 -114
-151 -131 -48 -13 -466 -13 -514 0 -61 17 -120 69 -152 133 -26 53 -28 66 -28
170 0 96 3 119 23 162 36 78 102 131 179 145 19 3 134 5 255 5 199 -1 224 -3
265 -22z m1109 8 c28 -8 60 -29 91 -60 64 -64 78 -112 76 -256 -2 -124 -17
-166 -80 -227 -62 -61 -98 -67 -359 -67 -255 1 -281 5 -349 64 -64 55 -81 104
-84 234 -1 78 3 128 13 156 27 81 103 147 188 165 55 11 457 4 504 -9z m1141
-8 c111 -50 151 -129 153 -297 1 -96 -2 -108 -29 -162 -32 -65 -91 -117 -152
-134 -48 -13 -466 -13 -514 0 -60 17 -120 69 -151 131 -25 51 -28 67 -29 161
0 57 5 122 11 144 23 86 106 160 190 171 20 3 37 6 38 7 1 1 100 2 220 1 197
-1 222 -3 263 -22z m1095 12 c45 -12 100 -50 129 -88 53 -70 53 -64 52 -727
l-1 -615 -23 -43 c-32 -61 -85 -107 -144 -126 -76 -24 -484 -23 -546 3 -55 22
-104 67 -134 123 l-23 43 -2 600 c-2 401 1 616 8 647 20 86 88 157 179 184 41
12 460 11 505 -1z m-3351 -1008 c51 -19 114 -79 137 -132 29 -66 28 -254 -2
-324 -24 -57 -72 -104 -133 -132 -37 -17 -67 -18 -291 -16 -237 2 -252 3 -291
24 -56 30 -106 90 -123 148 -15 51 -19 186 -7 250 17 91 83 161 176 189 61 18
482 13 534 -7z m1116 3 c28 -9 62 -32 92 -61 61 -61 76 -110 74 -254 -2 -123
-16 -164 -77 -223 -67 -65 -77 -67 -359 -67 -248 0 -256 1 -300 23 -51 27 -82
60 -112 117 -17 32 -22 61 -24 140 -1 55 2 121 8 147 19 93 103 173 195 187
87 12 453 6 503 -9z m1142 -8 c76 -33 129 -98 144 -173 3 -19 6 -78 6 -131 -1
-142 -40 -219 -137 -271 -38 -21 -53 -22 -300 -22 l-260 0 -47 27 c-53 32
-100 87 -117 140 -15 46 -17 220 -2 274 16 60 65 120 122 150 49 25 107 30
334 29 190 -1 214 -4 257 -23z"/>
<path d="M5189 3963 c-2 -94 1 -88 -56 -89 -29 -1 -57 -2 -62 -3 -5 0 -9 -28
-9 -61 l0 -60 65 0 64 0 -3 -60 c-2 -36 1 -61 7 -61 5 -1 34 -2 63 -3 58 -2
56 -5 52 82 l-2 42 65 0 65 0 0 60 c0 37 -5 60 -12 61 -6 1 -33 2 -61 3 l-50
1 0 60 -1 60 -62 3 -62 3 -1 -38z"/>
<path d="M5069 2875 c-1 0 -3 -28 -5 -62 l-3 -63 189 0 189 0 -1 48 c-1 83 13
77 -188 77 -99 0 -180 0 -181 0z"/>
<path d="M5061 1441 c0 -37 4 -61 12 -63 7 -2 91 -4 187 -4 l175 1 2 63 2 62
-189 0 -188 0 -1 -59z"/>
<path d="M5064 1193 c2 -32 4 -60 5 -63 1 -5 340 -5 362 -1 3 0 6 28 7 61 l0
60 -189 0 -188 0 3 -57z"/>
</g>
</svg>
